<?xml version="1.0" encoding="utf-8"?>
<!-- Generator: Adobe Illustrator 27.6.1, SVG Export Plug-In . SVG Version: 6.00 Build 0)  -->
<svg version="1.1" id="Layer_1" xmlns="http://www.w3.org/2000/svg" xmlns:xlink="http://www.w3.org/1999/xlink" x="0px" y="0px"
	 viewBox="0 0 1920 1080" style="enable-background:new 0 0 1920 1080;" xml:space="preserve">
<style type="text/css">
	.st0{clip-path:url(#SVGID_00000112619363782342656110000017603763706403559315_);}
	.st1{clip-path:url(#SVGID_00000089533847958091629010000001557210890790633143_);}
	.st2{clip-path:url(#SVGID_00000038372472908173842140000016307088935392130730_);}
	.st3{clip-path:url(#SVGID_00000037684755525205374970000002758650500367508873_);}
	.st4{clip-path:url(#SVGID_00000065049237602964863970000004253433719616369072_);}
	.st5{fill:#142941;}
	.st6{clip-path:url(#SVGID_00000080887205055056484530000006850741865460049808_);}
	.st7{clip-path:url(#SVGID_00000098926293422763767360000005977386922441394612_);}
	.st8{clip-path:url(#SVGID_00000014621634160875412020000000195129263424207286_);}
	.st9{clip-path:url(#SVGID_00000158722213134329551430000004012645427554377115_);}
	.st10{clip-path:url(#SVGID_00000042010266155973611420000012483197631246824608_);}
	.st11{clip-path:url(#SVGID_00000079476014468673290060000007729638514567188391_);}
	.st12{fill:#F7F5F3;}
	.st13{clip-path:url(#SVGID_00000079453960816720297940000003356038836469701264_);}
</style>
<g>
	<defs>
		<rect id="SVGID_1_" x="-1498.7" y="441.8" width="190.6" height="185.5"/>
	</defs>
	<clipPath id="SVGID_00000170985818190889694340000016835095209159492782_">
		<use xlink:href="#SVGID_1_"  style="overflow:visible;"/>
	</clipPath>
	<g style="clip-path:url(#SVGID_00000170985818190889694340000016835095209159492782_);">
		<g>
			<defs>
				<polygon id="SVGID_00000041997254390764536780000007474410983110632374_" points="-1334.8,460.3 -1378.6,521.7 -1308.6,545.2 
					-1317.3,574.7 -1388.1,551.2 -1388.1,627.3 -1418.5,627.3 -1418.5,551.2 -1489.2,574.7 -1498.7,545.2 -1428,521.7 
					-1471.7,460.3 -1447,441.8 -1403.3,503.1 -1359.6,441.8 				"/>
			</defs>
			<clipPath id="SVGID_00000111896870290103323560000009902164982590112685_">
				<use xlink:href="#SVGID_00000041997254390764536780000007474410983110632374_"  style="overflow:visible;"/>
			</clipPath>
			<g style="clip-path:url(#SVGID_00000111896870290103323560000009902164982590112685_);">
				<g transform="matrix(1, 0, 0, 1, 330, 336)">
					<g>
						<defs>
							<rect id="SVGID_00000086676824550708409570000018325925273293182132_" x="-1830" y="105" width="192.5" height="187.1"/>
						</defs>
						<clipPath id="SVGID_00000065763441963738490960000013143596530588431274_">
							<use xlink:href="#SVGID_00000086676824550708409570000018325925273293182132_"  style="overflow:visible;"/>
						</clipPath>
						<g style="clip-path:url(#SVGID_00000065763441963738490960000013143596530588431274_);">
							<g>
								<defs>
									
										<rect id="SVGID_00000050659211160578698120000015810727400430648215_" x="-1828.7" y="105.8" width="189.9" height="185.5"/>
								</defs>
								<clipPath id="SVGID_00000017492002290958918160000009417744461456968582_">
									<use xlink:href="#SVGID_00000050659211160578698120000015810727400430648215_"  style="overflow:visible;"/>
								</clipPath>
								<g style="clip-path:url(#SVGID_00000017492002290958918160000009417744461456968582_);">
									<g>
										<defs>
											<polygon id="SVGID_00000048472212220137083680000001373605079898398853_" points="-1664.8,124.3 -1708.6,185.7 
												-1638.6,209.2 -1647.3,238.7 -1718.1,215.2 -1718.1,291.3 -1748.5,291.3 -1748.5,215.2 -1819.2,238.7 -1828.7,209.2 
												-1758,185.7 -1801.7,124.3 -1777,105.8 -1733.3,167.1 -1689.6,105.8 											"/>
										</defs>
										<clipPath id="SVGID_00000117676716067512330330000012218067784835107982_">
											<use xlink:href="#SVGID_00000048472212220137083680000001373605079898398853_"  style="overflow:visible;"/>
										</clipPath>
										<g style="clip-path:url(#SVGID_00000117676716067512330330000012218067784835107982_);">
											<path class="st5" d="M-1828.7,105.8h189.9v185.5h-189.9V105.8z"/>
										</g>
									</g>
								</g>
							</g>
						</g>
					</g>
				</g>
			</g>
		</g>
	</g>
</g>
<g>
	<defs>
		<rect id="SVGID_00000072998915017225940540000006146137730274821547_" x="-1272" y="418.7" width="758.7" height="242.7"/>
	</defs>
	<clipPath id="SVGID_00000049199512359372724150000014469304759082609802_">
		<use xlink:href="#SVGID_00000072998915017225940540000006146137730274821547_"  style="overflow:visible;"/>
	</clipPath>
	<g style="clip-path:url(#SVGID_00000049199512359372724150000014469304759082609802_);">
		<g>
			<g transform="translate(0.521934, 78.994469)">
				<g>
					<path class="st5" d="M-1228.3,446.1c-5.3,0-10-0.7-14.2-2.2c-4.2-1.4-7.8-3.4-10.9-6c-3.1-2.6-5.7-5.6-7.7-9.1
						c-2-3.5-3.6-7.3-4.6-11.4c-1-4.1-1.5-8.3-1.5-12.7c0-4.4,0.5-8.6,1.5-12.7c1-4.1,2.5-7.9,4.5-11.3c2-3.5,4.6-6.5,7.6-9.1
						c3.1-2.6,6.7-4.7,10.9-6.1c4.2-1.4,8.9-2.2,14.2-2.2c5.3,0,10.2,0.9,14.7,2.6c4.5,1.8,8.5,4.4,12,7.8c3.5,3.4,6.3,7.6,8.5,12.6
						l-13.5,5.3c-1-3.5-2.5-6.4-4.6-8.5c-2.1-2.1-4.6-3.7-7.5-4.7c-2.9-1-6.1-1.5-9.6-1.5c-4.2,0-7.9,0.7-11,2.1
						c-3.1,1.4-5.6,3.4-7.6,5.9c-2,2.5-3.4,5.4-4.4,8.7c-0.9,3.3-1.4,6.8-1.4,10.5c0,4,0.5,7.7,1.4,11.1c1,3.4,2.4,6.4,4.4,9
						c2,2.6,4.5,4.6,7.6,6c3.1,1.4,6.8,2.1,11.1,2.1c5.2,0,9.6-1.1,13.2-3.4c3.6-2.3,6.4-6.1,8.6-11.5l13.4,5.5
						c-2.1,5-4.9,9.2-8.4,12.6c-3.5,3.4-7.4,6-12,7.8C-1218,445.3-1222.9,446.1-1228.3,446.1z"/>
				</g>
			</g>
		</g>
		<g>
			<g transform="translate(63.842889, 78.994469)">
				<g>
					<path class="st5" d="M-1240.4,445v-80.3h14.4v66.7h34.3V445H-1240.4z"/>
				</g>
			</g>
		</g>
		<g>
			<g transform="translate(111.432172, 78.994469)">
				<g>
					<path class="st5" d="M-1234.2,445l32.2-80.3h10.8l32,80.3h-15.6l-6.2-17.5h-31.2l-6.2,17.5H-1234.2z M-1207.3,415.2h21.4
						l-10.7-29.3L-1207.3,415.2z"/>
				</g>
			</g>
		</g>
		<g>
			<g transform="translate(170.958776, 78.994469)">
				<g>
					<path class="st5" d="M-1182.2,445l-32.2-80.3h16l21.7,56.9l21.5-56.9h15.8l-32,80.3H-1182.2z"/>
				</g>
			</g>
		</g>
		<g>
			<g transform="translate(230.485364, 78.994469)">
				<g>
					<path class="st5" d="M-1184.8,445v-80.3h53.4v13.2h-39v20.3h36.3v13.2h-36.3v19.9h39V445H-1184.8z"/>
				</g>
			</g>
		</g>
		<g>
			<g transform="translate(285.833891, 78.994469)">
				<g>
					<path class="st5" d="M-1166.4,445.1v-80.4h26c3.8,0,7.3,0.5,10.6,1.6c3.4,1,6.3,2.6,8.9,4.6c2.6,2,4.6,4.5,6,7.5
						c1.5,2.9,2.2,6.3,2.2,10c0,3.4-0.7,6.4-2,9.2c-1.3,2.8-3.2,5.1-5.6,7.1c-2.4,2-5.1,3.5-8.1,4.6l22.3,35.9h-16.5l-19.8-34.4
						h-9.6v34.4H-1166.4z M-1151.8,398.9h12.7c3.8-0.2,6.8-1.2,9-3.1c2.2-1.9,3.2-4.3,3.2-7.3c0-3.3-1.2-6-3.6-8c-2.4-2-5.7-3-9.8-3
						h-11.5V398.9z"/>
				</g>
			</g>
		</g>
		<g>
			<g transform="translate(342.163018, 78.994469)">
				<g>
					<path class="st5" d="M-1131.6,445v-67.4h-25.2v-12.9h64.7v12.9h-25.1V445H-1131.6z"/>
				</g>
			</g>
		</g>
		<g>
			<g transform="translate(0.521934, 155.393268)">
				<g>
					<path class="st5" d="M-1228.3,471.6c-5.3,0-10-0.7-14.2-2.2c-4.2-1.4-7.8-3.4-10.9-6c-3.1-2.6-5.7-5.6-7.7-9.1
						c-2-3.5-3.6-7.3-4.6-11.4c-1-4.1-1.5-8.3-1.5-12.7c0-4.4,0.5-8.6,1.5-12.7c1-4.1,2.5-7.9,4.5-11.3c2-3.5,4.6-6.5,7.6-9.1
						c3.1-2.6,6.7-4.7,10.9-6.1c4.2-1.4,8.9-2.2,14.2-2.2c5.3,0,10.2,0.9,14.7,2.6c4.5,1.8,8.5,4.4,12,7.8c3.5,3.4,6.3,7.6,8.5,12.6
						l-13.5,5.3c-1-3.5-2.5-6.4-4.6-8.5c-2.1-2.1-4.6-3.7-7.5-4.7c-2.9-1-6.1-1.5-9.6-1.5c-4.2,0-7.9,0.7-11,2.1
						c-3.1,1.4-5.6,3.4-7.6,5.9c-2,2.5-3.4,5.4-4.4,8.7c-0.9,3.3-1.4,6.8-1.4,10.5c0,4,0.5,7.7,1.4,11.1c1,3.4,2.4,6.4,4.4,9
						c2,2.6,4.5,4.6,7.6,6c3.1,1.4,6.8,2.1,11.1,2.1c5.2,0,9.6-1.1,13.2-3.4c3.6-2.3,6.4-6.1,8.6-11.5l13.4,5.5
						c-2.1,5-4.9,9.2-8.4,12.6c-3.5,3.4-7.4,6-12,7.8C-1218,470.7-1222.9,471.6-1228.3,471.6z"/>
				</g>
			</g>
		</g>
		<g>
			<g transform="translate(63.842889, 155.393268)">
				<g>
					<path class="st5" d="M-1207.3,471.6c-5.3,0-10.1-0.7-14.2-2.2c-4.2-1.4-7.8-3.5-10.9-6.1c-3.1-2.6-5.6-5.6-7.6-9.1
						c-2-3.5-3.5-7.3-4.5-11.3c-1-4.1-1.5-8.3-1.5-12.6c0-4.4,0.5-8.6,1.5-12.7c1-4.1,2.5-7.8,4.5-11.3c2-3.5,4.6-6.5,7.6-9.1
						c3.1-2.6,6.7-4.6,10.9-6.1c4.2-1.4,8.9-2.2,14.2-2.2c5.3,0,10,0.7,14.2,2.2c4.2,1.4,7.8,3.5,10.9,6.1c3.1,2.6,5.6,5.6,7.6,9.1
						c2,3.5,3.5,7.3,4.5,11.3c1,4,1.5,8.3,1.5,12.7c0,4.4-0.5,8.6-1.5,12.6c-1,4.1-2.5,7.8-4.5,11.3c-2,3.5-4.6,6.5-7.6,9.1
						c-3.1,2.6-6.7,4.6-10.9,6.1C-1197.2,470.9-1202,471.6-1207.3,471.6z M-1207.3,458.8c4.3,0,8-0.8,11-2.3c3-1.5,5.4-3.6,7.2-6.3
						c1.8-2.7,3.2-5.7,4-9.1c0.9-3.4,1.3-7,1.3-10.8c0-3.8-0.4-7.4-1.3-10.8c-0.8-3.4-2.2-6.4-4-9.1c-1.8-2.7-4.2-4.7-7.2-6.3
						c-3-1.5-6.6-2.3-11-2.3c-4.3,0-8,0.8-11,2.3c-3,1.5-5.4,3.6-7.2,6.3c-1.8,2.7-3.2,5.7-4,9.1c-0.8,3.4-1.3,7-1.3,10.8
						c0,3.8,0.4,7.4,1.3,10.8c0.9,3.4,2.2,6.5,4,9.1c1.8,2.7,4.2,4.8,7.2,6.3C-1215.3,458.1-1211.6,458.8-1207.3,458.8z"/>
				</g>
			</g>
		</g>
		<g>
			<g transform="translate(131.256638, 155.393268)">
				<g>
					<path class="st5" d="M-1217.9,470.5v-80.3h14.3l33.8,56.2v-56.2h13.9v80.3h-14.4l-33.7-56.3v56.3H-1217.9z"/>
				</g>
			</g>
		</g>
		<g>
			<g transform="translate(195.515533, 155.393268)">
				<g>
					<path class="st5" d="M-1173.5,471.4c-3.6,0-7.1-0.5-10.4-1.5c-3.4-1-6.5-2.4-9.3-4.4c-2.8-2-5.2-4.4-7.1-7.4
						c-1.9-3-3.2-6.4-3.9-10.4l14.3-3.6c0.3,3.3,1.3,6.1,2.9,8.2c1.6,2.1,3.5,3.7,5.9,4.7c2.4,1,5,1.5,7.9,1.5
						c2.9,0,5.3-0.4,7.2-1.4c2-0.9,3.4-2.2,4.5-3.7c1-1.6,1.5-3.3,1.5-5.2c0-2.1-0.6-3.9-1.7-5.3c-1.1-1.5-2.6-2.8-4.4-3.9
						c-1.8-1.1-3.9-2.1-6.2-3c-2.3-0.9-4.7-1.9-7.2-2.8c-2.5-1-4.8-2.1-7.2-3.3c-2.3-1.2-4.4-2.7-6.2-4.4c-1.8-1.7-3.3-3.7-4.4-6.1
						c-1.1-2.4-1.6-5.2-1.6-8.5c0-3.6,0.7-6.7,2-9.5c1.3-2.8,3.2-5.1,5.5-7c2.3-1.9,5-3.3,8-4.3c3-1,6.2-1.5,9.6-1.5
						c5,0,9.6,1.1,13.9,3.4c4.3,2.2,7.8,5.8,10.6,10.7l-12,7.3c-1.4-2.7-3.2-4.8-5.5-6.3c-2.3-1.5-4.7-2.2-7.4-2.2
						c-1.9,0-3.6,0.4-5.1,1.1c-1.5,0.7-2.7,1.7-3.6,3c-0.9,1.3-1.3,2.8-1.3,4.5c0,1.9,0.5,3.5,1.6,4.9c1.1,1.3,2.6,2.5,4.4,3.5
						c1.8,1,3.9,1.9,6.2,2.8c2.3,0.9,4.7,1.8,7.2,2.8c2.5,1,4.9,2.1,7.2,3.3c2.3,1.2,4.4,2.7,6.2,4.5c1.8,1.7,3.3,3.8,4.4,6.2
						c1.1,2.4,1.7,5.3,1.7,8.6c0,3.8-0.7,7.2-2.2,10.2c-1.5,3-3.5,5.6-6,7.7c-2.6,2.1-5.5,3.7-8.9,4.8
						C-1166.1,470.8-1169.7,471.4-1173.5,471.4z"/>
				</g>
			</g>
		</g>
		<g>
			<g transform="translate(246.259669, 155.393268)">
				<g>
					<path class="st5" d="M-1150.7,471.6c-7.2,0-13.1-1.3-17.6-4c-4.5-2.7-7.8-6.4-9.9-11.3c-2.1-4.9-3.2-10.6-3.2-17.1v-49h14.4
						v47.3c0,4.3,0.5,8,1.4,11c0.9,3,2.6,5.3,4.9,6.8c2.4,1.6,5.7,2.4,10,2.4c4.3,0,7.7-0.8,10-2.4c2.3-1.6,4-3.8,4.9-6.8
						c0.9-3,1.4-6.7,1.4-11v-47.3h14.4v48.4c0,6.8-1.1,12.6-3.2,17.5c-2.1,4.9-5.5,8.8-10,11.5
						C-1137.6,470.3-1143.5,471.6-1150.7,471.6z"/>
				</g>
			</g>
		</g>
		<g>
			<g transform="translate(307.363687, 155.393268)">
				<g>
					<path class="st5" d="M-1159.2,470.5v-80.3h14.4v66.7h34.3v13.6H-1159.2z"/>
				</g>
			</g>
		</g>
		<g>
			<g transform="translate(354.952995, 155.393268)">
				<g>
					<path class="st5" d="M-1127.4,470.5V403h-25.2v-12.9h64.7V403h-25.1v67.4H-1127.4z"/>
				</g>
			</g>
		</g>
		<g>
			<g transform="translate(407.530361, 155.393268)">
				<g>
					<path class="st5" d="M-1125.8,470.5v-80.3h14.4v80.3H-1125.8z"/>
				</g>
			</g>
		</g>
		<g>
			<g transform="translate(436.147836, 155.393268)">
				<g>
					<path class="st5" d="M-1116.3,470.5v-80.3h14.3l33.8,56.2v-56.2h13.9v80.3h-14.4l-33.7-56.3v56.3H-1116.3z"/>
				</g>
			</g>
		</g>
		<g>
			<g transform="translate(500.406715, 155.393268)">
				<g>
					<path class="st5" d="M-1061.7,471.6c-5.3,0-10-0.7-14.2-2.2c-4.2-1.4-7.8-3.4-10.9-6c-3.1-2.6-5.7-5.6-7.7-9.1
						c-2-3.5-3.6-7.3-4.6-11.4c-1-4.1-1.5-8.3-1.5-12.7c0-4.4,0.5-8.6,1.5-12.7c1-4.1,2.5-7.9,4.5-11.3c2-3.5,4.6-6.5,7.6-9.1
						c3.1-2.6,6.7-4.7,10.9-6.1c4.2-1.4,8.9-2.2,14.2-2.2c5.3,0,10.1,0.9,14.6,2.6c4.5,1.8,8.5,4.4,11.9,7.8
						c3.5,3.4,6.3,7.6,8.4,12.6l-12.8,5.3c-1.2-3.6-2.9-6.6-5.1-8.9c-2.2-2.3-4.8-4.1-7.7-5.2c-2.9-1.1-6.1-1.7-9.5-1.7
						c-4.2,0-7.9,0.8-11,2.3c-3.1,1.5-5.6,3.6-7.6,6.2c-2,2.6-3.4,5.6-4.4,9c-0.9,3.4-1.4,6.9-1.4,10.7c0,4,0.5,7.7,1.4,11.2
						c1,3.5,2.4,6.6,4.4,9.3c2,2.7,4.5,4.8,7.6,6.2c3.1,1.5,6.8,2.2,11.1,2.2c3.9,0,7.4-0.8,10.6-2.4c3.2-1.6,5.8-3.9,7.9-7
						c2.1-3,3.4-6.5,4-10.6h-18.2V427h32.2v43.4h-11.4l-1.2-11.3c-1.4,2.5-3.3,4.7-5.7,6.6c-2.3,1.9-5.1,3.3-8.1,4.4
						C-1054.8,471.1-1058.1,471.6-1061.7,471.6z"/>
				</g>
			</g>
		</g>
	</g>
</g>
<g>
	<defs>
		<rect id="SVGID_00000018939553009481794620000001566397599645730707_" x="467.3" y="441.8" width="190.6" height="185.5"/>
	</defs>
	<clipPath id="SVGID_00000183214288896309638230000012431310694887208366_">
		<use xlink:href="#SVGID_00000018939553009481794620000001566397599645730707_"  style="overflow:visible;"/>
	</clipPath>
	<g style="clip-path:url(#SVGID_00000183214288896309638230000012431310694887208366_);">
		<g>
			<defs>
				<polygon id="SVGID_00000057869632475459213590000014753569643279157691_" points="631.2,460.3 587.5,521.7 657.4,545.2 
					648.7,574.7 578,551.2 578,627.3 547.5,627.3 547.5,551.2 476.8,574.7 467.3,545.2 538,521.7 494.3,460.3 519,441.8 
					562.7,503.1 606.5,441.8 				"/>
			</defs>
			<use xlink:href="#SVGID_00000057869632475459213590000014753569643279157691_"  style="overflow:visible;fill:#F7F5F3;"/>
			<clipPath id="SVGID_00000026165450458600609730000001418358860549820302_">
				<use xlink:href="#SVGID_00000057869632475459213590000014753569643279157691_"  style="overflow:visible;"/>
			</clipPath>
			<g style="clip-path:url(#SVGID_00000026165450458600609730000001418358860549820302_);">
				<g transform="matrix(1, 0, 0, 1, 330, 336)">
					<g>
						<defs>
							<rect id="SVGID_00000113314982564841506980000009252056232086876573_" x="136" y="105" width="192.5" height="187.1"/>
						</defs>
						<use xlink:href="#SVGID_00000113314982564841506980000009252056232086876573_"  style="overflow:visible;fill:#F7F5F3;"/>
						<clipPath id="SVGID_00000034073543678543954660000007159075794378973074_">
							<use xlink:href="#SVGID_00000113314982564841506980000009252056232086876573_"  style="overflow:visible;"/>
						</clipPath>
						<g style="clip-path:url(#SVGID_00000034073543678543954660000007159075794378973074_);">
							<g>
								<defs>
									<rect id="SVGID_00000067223984558399080040000008100219377916163729_" x="137.3" y="105.8" width="189.9" height="185.5"/>
								</defs>
								<use xlink:href="#SVGID_00000067223984558399080040000008100219377916163729_"  style="overflow:visible;fill:#F7F5F3;"/>
								<clipPath id="SVGID_00000147940114377401805180000003527653627889703324_">
									<use xlink:href="#SVGID_00000067223984558399080040000008100219377916163729_"  style="overflow:visible;"/>
								</clipPath>
								<g style="clip-path:url(#SVGID_00000147940114377401805180000003527653627889703324_);">
									<g>
										<defs>
											<polygon id="SVGID_00000103223205904081546100000012711102057544133014_" points="301.2,124.3 257.5,185.7 327.4,209.2 
												318.7,238.7 248,215.2 248,291.3 217.5,291.3 217.5,215.2 146.8,238.7 137.3,209.2 208,185.7 164.3,124.3 189,105.8 
												232.7,167.1 276.5,105.8 											"/>
										</defs>
										<use xlink:href="#SVGID_00000103223205904081546100000012711102057544133014_"  style="overflow:visible;fill:#F7F5F3;"/>
										<clipPath id="SVGID_00000070081175944024107600000003531634406024117173_">
											<use xlink:href="#SVGID_00000103223205904081546100000012711102057544133014_"  style="overflow:visible;"/>
										</clipPath>
										<g style="clip-path:url(#SVGID_00000070081175944024107600000003531634406024117173_);">
											<path class="st12" d="M137.3,105.8h189.9v185.5H137.3V105.8z"/>
										</g>
									</g>
								</g>
							</g>
						</g>
					</g>
				</g>
			</g>
		</g>
	</g>
</g>
<g>
	<defs>
		<rect id="SVGID_00000023276432604556458880000003008508726740699801_" x="694" y="418.7" width="758.7" height="242.7"/>
	</defs>
	<clipPath id="SVGID_00000107586641259395792770000006693406649555146924_">
		<use xlink:href="#SVGID_00000023276432604556458880000003008508726740699801_"  style="overflow:visible;"/>
	</clipPath>
	<g style="clip-path:url(#SVGID_00000107586641259395792770000006693406649555146924_);">
		<g>
			<g transform="translate(0.521934, 78.994469)">
				<g>
					<path class="st12" d="M737.8,446.1c-5.3,0-10-0.7-14.2-2.2c-4.2-1.4-7.8-3.4-10.9-6c-3.1-2.6-5.7-5.6-7.7-9.1
						c-2-3.5-3.6-7.3-4.6-11.4c-1-4.1-1.5-8.3-1.5-12.7c0-4.4,0.5-8.6,1.5-12.7c1-4.1,2.5-7.9,4.5-11.3c2-3.5,4.6-6.5,7.6-9.1
						c3.1-2.6,6.7-4.7,10.9-6.1c4.2-1.4,8.9-2.2,14.2-2.2c5.3,0,10.2,0.9,14.7,2.6c4.5,1.8,8.5,4.4,12,7.8c3.5,3.4,6.3,7.6,8.5,12.6
						l-13.5,5.3c-1-3.5-2.5-6.4-4.6-8.5c-2.1-2.1-4.6-3.7-7.5-4.7c-2.9-1-6.1-1.5-9.6-1.5c-4.2,0-7.9,0.7-11,2.1
						c-3.1,1.4-5.6,3.4-7.6,5.9c-2,2.5-3.4,5.4-4.4,8.7c-0.9,3.3-1.4,6.8-1.4,10.5c0,4,0.5,7.7,1.4,11.1c1,3.4,2.4,6.4,4.4,9
						c2,2.6,4.5,4.6,7.6,6c3.1,1.4,6.8,2.1,11.1,2.1c5.2,0,9.6-1.1,13.2-3.4c3.6-2.3,6.4-6.1,8.6-11.5l13.4,5.5
						c-2.1,5-4.9,9.2-8.4,12.6c-3.5,3.4-7.4,6-12,7.8C748,445.3,743.1,446.1,737.8,446.1z"/>
				</g>
			</g>
		</g>
		<g>
			<g transform="translate(63.842889, 78.994469)">
				<g>
					<path class="st12" d="M725.7,445v-80.3h14.4v66.7h34.3V445H725.7z"/>
				</g>
			</g>
		</g>
		<g>
			<g transform="translate(111.432172, 78.994469)">
				<g>
					<path class="st12" d="M731.9,445l32.2-80.3h10.8l32,80.3h-15.6l-6.2-17.5h-31.2l-6.2,17.5H731.9z M758.7,415.2h21.4l-10.7-29.3
						L758.7,415.2z"/>
				</g>
			</g>
		</g>
		<g>
			<g transform="translate(170.958776, 78.994469)">
				<g>
					<path class="st12" d="M783.9,445l-32.2-80.3h16l21.7,56.9l21.5-56.9h15.8l-32,80.3H783.9z"/>
				</g>
			</g>
		</g>
		<g>
			<g transform="translate(230.485364, 78.994469)">
				<g>
					<path class="st12" d="M781.2,445v-80.3h53.4v13.2h-39v20.3H832v13.2h-36.3v19.9h39V445H781.2z"/>
				</g>
			</g>
		</g>
		<g>
			<g transform="translate(285.833891, 78.994469)">
				<g>
					<path class="st12" d="M799.7,445.1v-80.4h26c3.8,0,7.3,0.5,10.6,1.6c3.4,1,6.3,2.6,8.9,4.6c2.6,2,4.6,4.5,6,7.5
						c1.5,2.9,2.2,6.3,2.2,10c0,3.4-0.7,6.4-2,9.2c-1.3,2.8-3.2,5.1-5.6,7.1c-2.4,2-5.1,3.5-8.1,4.6l22.3,35.9h-16.5l-19.8-34.4
						h-9.6v34.4H799.7z M814.2,398.9h12.7c3.8-0.2,6.8-1.2,9-3.1c2.2-1.9,3.2-4.3,3.2-7.3c0-3.3-1.2-6-3.6-8c-2.4-2-5.7-3-9.8-3
						h-11.5V398.9z"/>
				</g>
			</g>
		</g>
		<g>
			<g transform="translate(342.163018, 78.994469)">
				<g>
					<path class="st12" d="M834.4,445v-67.4h-25.2v-12.9H874v12.9h-25.1V445H834.4z"/>
				</g>
			</g>
		</g>
		<g>
			<g transform="translate(0.521934, 155.393268)">
				<g>
					<path class="st12" d="M737.8,471.6c-5.3,0-10-0.7-14.2-2.2c-4.2-1.4-7.8-3.4-10.9-6c-3.1-2.6-5.7-5.6-7.7-9.1
						c-2-3.5-3.6-7.3-4.6-11.4c-1-4.1-1.5-8.3-1.5-12.7c0-4.4,0.5-8.6,1.5-12.7c1-4.1,2.5-7.9,4.5-11.3c2-3.5,4.6-6.5,7.6-9.1
						c3.1-2.6,6.7-4.7,10.9-6.1c4.2-1.4,8.9-2.2,14.2-2.2c5.3,0,10.2,0.9,14.7,2.6c4.5,1.8,8.5,4.4,12,7.8c3.5,3.4,6.3,7.6,8.5,12.6
						l-13.5,5.3c-1-3.5-2.5-6.4-4.6-8.5c-2.1-2.1-4.6-3.7-7.5-4.7c-2.9-1-6.1-1.5-9.6-1.5c-4.2,0-7.9,0.7-11,2.1
						c-3.1,1.4-5.6,3.4-7.6,5.9c-2,2.5-3.4,5.4-4.4,8.7c-0.9,3.3-1.4,6.8-1.4,10.5c0,4,0.5,7.7,1.4,11.1c1,3.4,2.4,6.4,4.4,9
						c2,2.6,4.5,4.6,7.6,6c3.1,1.4,6.8,2.1,11.1,2.1c5.2,0,9.6-1.1,13.2-3.4c3.6-2.3,6.4-6.1,8.6-11.5l13.4,5.5
						c-2.1,5-4.9,9.2-8.4,12.6c-3.5,3.4-7.4,6-12,7.8C748,470.7,743.1,471.6,737.8,471.6z"/>
				</g>
			</g>
		</g>
		<g>
			<g transform="translate(63.842889, 155.393268)">
				<g>
					<path class="st12" d="M758.8,471.6c-5.3,0-10.1-0.7-14.2-2.2c-4.2-1.4-7.8-3.5-10.9-6.1c-3.1-2.6-5.6-5.6-7.6-9.1
						c-2-3.5-3.5-7.3-4.5-11.3c-1-4.1-1.5-8.3-1.5-12.6c0-4.4,0.5-8.6,1.5-12.7c1-4.1,2.5-7.8,4.5-11.3c2-3.5,4.6-6.5,7.6-9.1
						c3.1-2.6,6.7-4.6,10.9-6.1c4.2-1.4,8.9-2.2,14.2-2.2c5.3,0,10,0.7,14.2,2.2c4.2,1.4,7.8,3.5,10.9,6.1c3.1,2.6,5.6,5.6,7.6,9.1
						c2,3.5,3.5,7.3,4.5,11.3c1,4,1.5,8.3,1.5,12.7c0,4.4-0.5,8.6-1.5,12.6c-1,4.1-2.5,7.8-4.5,11.3c-2,3.5-4.6,6.5-7.6,9.1
						c-3.1,2.6-6.7,4.6-10.9,6.1C768.8,470.9,764.1,471.6,758.8,471.6z M758.8,458.8c4.3,0,8-0.8,11-2.3c3-1.5,5.4-3.6,7.2-6.3
						c1.8-2.7,3.2-5.7,4-9.1c0.9-3.4,1.3-7,1.3-10.8c0-3.8-0.4-7.4-1.3-10.8c-0.8-3.4-2.2-6.4-4-9.1c-1.8-2.7-4.2-4.7-7.2-6.3
						c-3-1.5-6.6-2.3-11-2.3c-4.3,0-8,0.8-11,2.3c-3,1.5-5.4,3.6-7.2,6.3c-1.8,2.7-3.2,5.7-4,9.1c-0.8,3.4-1.3,7-1.3,10.8
						c0,3.8,0.4,7.4,1.3,10.8c0.9,3.4,2.2,6.5,4,9.1c1.8,2.7,4.2,4.8,7.2,6.3C750.8,458.1,754.4,458.8,758.8,458.8z"/>
				</g>
			</g>
		</g>
		<g>
			<g transform="translate(131.256638, 155.393268)">
				<g>
					<path class="st12" d="M748.1,470.5v-80.3h14.3l33.8,56.2v-56.2h13.9v80.3h-14.4L762,414.1v56.3H748.1z"/>
				</g>
			</g>
		</g>
		<g>
			<g transform="translate(195.515533, 155.393268)">
				<g>
					<path class="st12" d="M792.5,471.4c-3.6,0-7.1-0.5-10.4-1.5c-3.4-1-6.5-2.4-9.3-4.4c-2.8-2-5.2-4.4-7.1-7.4
						c-1.9-3-3.2-6.4-3.9-10.4l14.3-3.6c0.3,3.3,1.3,6.1,2.9,8.2c1.6,2.1,3.5,3.7,5.9,4.7c2.4,1,5,1.5,7.9,1.5
						c2.9,0,5.3-0.4,7.2-1.4c2-0.9,3.4-2.2,4.5-3.7c1-1.6,1.5-3.3,1.5-5.2c0-2.1-0.6-3.9-1.7-5.3c-1.1-1.5-2.6-2.8-4.4-3.9
						c-1.8-1.1-3.9-2.1-6.2-3c-2.3-0.9-4.7-1.9-7.2-2.8c-2.5-1-4.8-2.1-7.2-3.3c-2.3-1.2-4.4-2.7-6.2-4.4c-1.8-1.7-3.3-3.7-4.4-6.1
						c-1.1-2.4-1.6-5.2-1.6-8.5c0-3.6,0.7-6.7,2-9.5c1.3-2.8,3.2-5.1,5.5-7c2.3-1.9,5-3.3,8-4.3c3-1,6.2-1.5,9.6-1.5
						c5,0,9.6,1.1,13.9,3.4c4.3,2.2,7.8,5.8,10.6,10.7l-12,7.3c-1.4-2.7-3.2-4.8-5.5-6.3c-2.3-1.5-4.7-2.2-7.4-2.2
						c-1.9,0-3.6,0.4-5.1,1.1c-1.5,0.7-2.7,1.7-3.6,3c-0.9,1.3-1.3,2.8-1.3,4.5c0,1.9,0.5,3.5,1.6,4.9c1.1,1.3,2.6,2.5,4.4,3.5
						c1.8,1,3.9,1.9,6.2,2.8c2.3,0.9,4.7,1.8,7.2,2.8c2.5,1,4.9,2.1,7.2,3.3c2.3,1.2,4.4,2.7,6.2,4.5c1.8,1.7,3.3,3.8,4.4,6.2
						c1.1,2.4,1.7,5.3,1.7,8.6c0,3.8-0.7,7.2-2.2,10.2c-1.5,3-3.5,5.6-6,7.7c-2.6,2.1-5.5,3.7-8.9,4.8
						C799.9,470.8,796.3,471.4,792.5,471.4z"/>
				</g>
			</g>
		</g>
		<g>
			<g transform="translate(246.259669, 155.393268)">
				<g>
					<path class="st12" d="M815.4,471.6c-7.2,0-13.1-1.3-17.6-4c-4.5-2.7-7.8-6.4-9.9-11.3c-2.1-4.9-3.2-10.6-3.2-17.1v-49H799v47.3
						c0,4.3,0.5,8,1.4,11c0.9,3,2.6,5.3,4.9,6.8c2.4,1.6,5.7,2.4,10,2.4c4.3,0,7.7-0.8,10-2.4c2.3-1.6,4-3.8,4.9-6.8
						c0.9-3,1.4-6.7,1.4-11v-47.3h14.4v48.4c0,6.8-1.1,12.6-3.2,17.5c-2.1,4.9-5.5,8.8-10,11.5C828.4,470.3,822.5,471.6,815.4,471.6
						z"/>
				</g>
			</g>
		</g>
		<g>
			<g transform="translate(307.363687, 155.393268)">
				<g>
					<path class="st12" d="M806.8,470.5v-80.3h14.4v66.7h34.3v13.6H806.8z"/>
				</g>
			</g>
		</g>
		<g>
			<g transform="translate(354.952995, 155.393268)">
				<g>
					<path class="st12" d="M838.7,470.5V403h-25.2v-12.9h64.7V403h-25.1v67.4H838.7z"/>
				</g>
			</g>
		</g>
		<g>
			<g transform="translate(407.530361, 155.393268)">
				<g>
					<path class="st12" d="M840.2,470.5v-80.3h14.4v80.3H840.2z"/>
				</g>
			</g>
		</g>
		<g>
			<g transform="translate(436.147836, 155.393268)">
				<g>
					<path class="st12" d="M849.8,470.5v-80.3h14.3l33.8,56.2v-56.2h13.9v80.3h-14.4l-33.7-56.3v56.3H849.8z"/>
				</g>
			</g>
		</g>
		<g>
			<g transform="translate(500.406715, 155.393268)">
				<g>
					<path class="st12" d="M904.4,471.6c-5.3,0-10-0.7-14.2-2.2c-4.2-1.4-7.8-3.4-10.9-6c-3.1-2.6-5.7-5.6-7.7-9.1
						c-2-3.5-3.6-7.3-4.6-11.4c-1-4.1-1.5-8.3-1.5-12.7c0-4.4,0.5-8.6,1.5-12.7c1-4.1,2.5-7.9,4.5-11.3c2-3.5,4.6-6.5,7.6-9.1
						c3.1-2.6,6.7-4.7,10.9-6.1c4.2-1.4,8.9-2.2,14.2-2.2c5.3,0,10.1,0.9,14.6,2.6c4.5,1.8,8.5,4.4,11.9,7.8
						c3.5,3.4,6.3,7.6,8.4,12.6l-12.8,5.3c-1.2-3.6-2.9-6.6-5.1-8.9c-2.2-2.3-4.8-4.1-7.7-5.2c-2.9-1.1-6.1-1.7-9.5-1.7
						c-4.2,0-7.9,0.8-11,2.3c-3.1,1.5-5.6,3.6-7.6,6.2c-2,2.6-3.4,5.6-4.4,9c-0.9,3.4-1.4,6.9-1.4,10.7c0,4,0.5,7.7,1.4,11.2
						c1,3.5,2.4,6.6,4.4,9.3c2,2.7,4.5,4.8,7.6,6.2c3.1,1.5,6.8,2.2,11.1,2.2c3.9,0,7.4-0.8,10.6-2.4c3.2-1.6,5.8-3.9,7.9-7
						c2.1-3,3.4-6.5,4-10.6h-18.2V427h32.2v43.4h-11.4l-1.2-11.3c-1.4,2.5-3.3,4.7-5.7,6.6c-2.3,1.9-5.1,3.3-8.1,4.4
						C911.3,471.1,908,471.6,904.4,471.6z"/>
				</g>
			</g>
		</g>
	</g>
</g>
</svg>
